<svg width="50" height="41" viewBox="0 0 50 41" fill="none" xmlns="http://www.w3.org/2000/svg">
<path d="M17.6071 8.79805C17.6071 6.66514 16.008 0 12.0082 0C8.00924 0 7.47594 0 4.27662 0C1.07721 0 -1.0557 4.53223 0.544006 7.19834C1.95631 9.55195 2.54352 9.86426 3.34362 10.9307C4.14313 11.9975 6.40963 13.8635 8.80943 13.8635C11.2087 13.8635 17.6072 13.8635 17.6072 13.8635V8.79805H17.6071Z" fill="#FCE3DF"/>
<path d="M8.80937 10.2643C7.91376 10.2643 6.60702 9.28408 6.22265 8.77158C5.88212 8.31699 5.57782 7.97324 5.30976 7.67022C4.85419 7.15596 4.42421 6.67012 3.63066 5.34658C3.59443 5.27158 3.54999 4.89697 3.7457 4.39844C3.93495 3.91563 4.21376 3.65996 4.32284 3.59912H11.9791C12.8427 4.01641 14.0082 7.24248 14.0082 8.79805V10.2644L8.80937 10.2643Z" fill="#F8C9BD"/>
<path d="M32.3929 8.79805C32.3929 6.66514 33.9931 0 37.9922 0C41.9911 0 42.5249 0 45.7243 0C48.9224 0 51.0554 4.53223 49.4563 7.19834C48.0435 9.55195 47.4563 9.86426 46.6567 10.9307C45.8571 11.9975 43.5901 13.8635 41.1915 13.8635C38.7917 13.8635 32.3929 13.8635 32.3929 13.8635V8.79805Z" fill="#FCE3DF"/>
<path d="M41.1915 10.2643C42.0859 10.2643 43.3932 9.28408 43.7776 8.77158C44.118 8.31699 44.4229 7.97324 44.6899 7.67022C45.1455 7.15596 45.5761 6.67012 46.3696 5.34658C46.4053 5.27158 46.4503 4.89697 46.2545 4.39844C46.0646 3.91563 45.7859 3.65996 45.6768 3.59912H38.0206C37.1582 4.01641 35.9921 7.24248 35.9921 8.79805V10.2644L41.1915 10.2643Z" fill="#F8C9BD"/>
<path d="M25 40.391C14.1043 40.391 4.33533 35.2141 4.33533 23.9948C4.33533 16.0423 9.70916 6.59181 16.1753 3.25695C18.8302 1.88673 21.8279 2.13204 25 2.13204V40.391Z" fill="#FCE3DF"/>
<path d="M25 40.391C35.896 40.391 45.6649 35.2141 45.6649 23.9948C45.6649 16.0423 40.2911 6.59181 33.8259 3.25695C31.1699 1.88673 28.1721 2.13204 25 2.13204V40.391Z" fill="#FADAD4"/>
<path d="M17.3105 20.0371C17.3105 20.9063 16.6046 21.6113 15.7355 21.6113C14.866 21.6113 14.1613 20.9064 14.1613 20.0371C14.1613 19.7782 14.2235 19.5338 14.3339 19.3186C14.4069 19.1759 14.5017 19.0457 14.6132 18.9324C14.7456 18.7983 14.9009 18.688 15.0735 18.608C15.2746 18.5143 15.4988 18.4624 15.7355 18.4624C16.6046 18.4623 17.3105 19.1673 17.3105 20.0371Z" fill="#8A786F"/>
<path d="M35.839 20.0371C35.839 20.9063 35.1343 21.6113 34.2648 21.6113C33.3953 21.6113 32.6906 20.9064 32.6906 20.0371C32.6906 19.7782 32.7523 19.5338 32.8638 19.3186C32.9362 19.1759 33.0311 19.0457 33.1426 18.9324C33.2743 18.7983 33.4309 18.688 33.6029 18.608C33.8033 18.5143 34.0287 18.4624 34.2648 18.4624C35.1343 18.4623 35.839 19.1673 35.839 20.0371Z" fill="#8A786F"/>
<path d="M32.5981 28.1112C32.5981 32.2884 29.197 32.859 25 32.859C20.8041 32.859 17.4018 31.9545 17.4018 28.1112C17.4018 24.9734 20.8041 21.9283 25 21.9283C29.197 21.9284 32.5981 24.9735 32.5981 28.1112Z" fill="#E8AEA9"/>
<path d="M32.5981 27.0448C32.5981 31.222 29.197 31.793 25 31.793C20.8041 31.793 17.4018 30.8881 17.4018 27.0448C17.4018 23.9071 20.8041 20.8622 25 20.8622C29.197 20.8622 32.5981 23.9071 32.5981 27.0448Z" fill="#F6B8B2"/>
<path d="M23.1091 27.5272C23.1091 28.3969 22.4032 29.1018 21.5348 29.1018C20.6641 29.1018 19.9594 28.3969 19.9594 27.5272C19.9594 27.2684 20.0223 27.0243 20.1326 26.809C20.2061 26.6663 20.2999 26.5361 20.4114 26.4228C20.5443 26.2885 20.6997 26.1781 20.8716 26.098C21.0733 26.0046 21.2975 25.9527 21.5347 25.9527C22.4032 25.9528 23.1091 26.6578 23.1091 27.5272Z" fill="#DAA09C"/>
<path d="M30.0405 27.5272C30.0405 28.3969 29.3359 29.1018 28.4663 29.1018C27.5967 29.1018 26.8921 28.3969 26.8921 27.5272C26.8921 27.2684 26.9538 27.0243 27.064 26.809C27.1376 26.6663 27.2325 26.5361 27.344 26.4228C27.4757 26.2885 27.631 26.1781 27.8043 26.098C28.0048 26.0046 28.2301 25.9527 28.4662 25.9527C29.3359 25.9528 30.0405 26.6578 30.0405 27.5272Z" fill="#DAA09C"/>
</svg>
